<svg xmlns="http://www.w3.org/2000/svg" xmlns:svg="http://www.w3.org/2000/svg" id="svg38" width="120" height="120" version="1.1" viewBox="0 0 120 120"><metadata id="metadata44"/><path id="path28" d="M 68.263473,121.51313 C 126.50394,121.24348 126.56795,153.55768 128.26347,61.512826 130.05901,-35.961494 146.30959,1.0712663 60,0.0756836 -25.948757,-0.91573679 -10.559675,-13.516964 -10.05988,59.716419 -9.4740089,145.56236 -44.021234,122.03299 68.263473,121.51313 Z" style="fill:#003067"/><path id="path30" fill="#0078D4" d="M105 61.0239C104.676 51.0579 97.2185 42.8065 87.2755 41.5206C86.6271 27.5897 74.8468 16.6592 60.6888 17.0879C49.4489 16.8735 39.2898 23.7319 35.399 34.1265C23.5107 35.6267 14.4323 45.5927 14 57.4876C14.5404 70.9899 25.9964 81.4917 39.614 81.063C40.3705 81.063 41.1271 81.063 41.8836 80.9559H83.3848C83.709 80.9559 84.1413 80.8487 84.4656 80.7415C95.5974 80.7415 104.676 72.0615 105 61.0239Z"/><path id="path32" fill="#50E6FF" d="M63.7356 84.2826L60.6551 87.363L43.7126 70.4205L46.7931 67.34L63.7356 84.2826Z"/><path id="path34" fill="#50E6FF" d="M52.954 91.9837C49.6554 95.2823 44.5909 95.7384 40.8039 93.3522L36.0115 98.1446L32.1609 94.294L37.1759 89.279C35.4355 85.6355 36.0741 81.1395 39.0919 78.1217L45.2528 71.9607L59.1149 85.8228L52.954 91.9837Z"/><path id="path36" fill="#50E6FF" d="M72.2068 75.8114L75.2873 72.7309L73.7471 71.1907L79.908 65.0298C83.2065 61.7313 83.6627 56.6668 81.2765 52.8798L86.069 48.0873L82.2184 44.2367L77.2033 49.2518C73.5598 47.5113 69.0638 48.1499 66.0459 51.1677L59.885 57.3287L58.3447 55.7884L55.2643 58.8688L59.885 63.4895L55.2012 68.1733C54.8107 68.5638 54.8107 69.197 55.2012 69.5875L56.0973 70.4836C56.4879 70.8741 57.121 70.8741 57.5116 70.4836L62.1953 65.7999L65.2758 68.8804L60.5921 73.5641C60.2016 73.9546 60.2016 74.5878 60.5921 74.9783L61.4882 75.8744C61.8787 76.2649 62.5119 76.2649 62.9024 75.8744L67.5862 71.1907L72.2068 75.8114Z"/></svg>